<?xml version="1.0" encoding="UTF-8"?>
<svg width="600" height="500" version="1.1" xmlns="http://www.w3.org/2000/svg">
  <g>
    <path d="m151.36 268.25s-13.038 57.673-13.013 58.495c0.0252 0.82219 0.0767 2.2741 0.62088 3.6988 0.54417 1.4247 1.5802 2.8191 4.4197 3.7758s7.4817 1.4754 11.176 1.3057c3.6945-0.16971 6.4407-1.0278 8.3355-1.9764 1.8947-0.94863 2.9375-1.9876 3.4303-3.1266 0.49292-1.139 0.43575-2.3757 0.39999-3.0814-0.0358-0.70578-13.936-60.082-13.936-60.082z"/>
    <path d="m213.5 456.45 0.68919-1.7339s-24.232-45.307-24.463-45.725c-0.23049-0.41821-0.6107-1.0963-1.8446-1.9279-1.2339-0.83158-3.3231-1.8176-6.0802-1.4046-2.7571 0.41308-6.1812 2.2255-8.5947 4.4865-2.4135 2.261-3.8162 4.9703-4.3418 7.2089-0.5256 2.2386-0.17413 4.006 0.40086 5.375s1.3756 2.3412 1.821 2.859c0.44535 0.51775 42.413 30.862 42.413 30.862z"/>
    <path d="m51.608 331.11s60.03 16.904 60.707 17.199c0.67753 0.29494 1.9052 0.84227 2.893 1.8204 0.9879 0.97817 1.7361 2.3869 1.9397 4.6334 0.2036 2.2464-0.13729 5.3303-1.4813 8.0152s-3.6912 4.9705-5.6687 6.1394c-1.9776 1.169-3.5857 1.2214-4.6723 1.1016-1.0866-0.11981-1.6516-0.41187-1.9837-0.56504-0.33202-0.15317-52.293-36.94-52.293-36.94z"/>
    <path d="m55.837 440.77 0.61394 1.2916s58.668-20.967 59.327-21.37c0.65821-0.40372 1.8124-1.1617 2.6609-2.131 0.8485-0.96927 1.3902-2.1499 1.5523-4.3884s-0.0553-5.5344-1.4235-8.2433c-1.3683-2.7089-3.8875-4.8303-5.906-5.9799-2.0186-1.1497-3.5363-1.3274-4.784-1.0403s-2.2248 1.039-2.7431 1.4497c-0.51832 0.41068-49.297 40.412-49.297 40.412z"/>
    <path d="m92.859 300.79-1.2058 1.3063 18.153 30.755c3.9141-3.2198 8.2143-5.9391 12.801-8.0955z"/>
    <path d="m70.689 369.15-0.07098 1.3501 16.951 7.7295c0.10175-3.595 0.52124-7.1738 1.2534-10.695z"/>
    <path d="m60.091 401.42 0.42432 1.9519 30.815-2.317c-1.4326-3.8837-2.466-7.903-3.0845-11.996z"/>
    <path d="m112.2 428.93-12.309 52.951 1.4427 0.0849 33.939-42.482c-8.3457-1.8616-16.207-5.4574-23.073-10.554z"/>
    <path d="m149.58 440.93 13.102 27.704 1.5276-0.67893-0.4568-28.942c-4.6329 1.1929-9.3898 1.8366-14.173 1.9178z"/>
    <path d="m208.84 389.11 42.351 24.373-0.42432 1.3578-49.527-4.1812c3.8687-6.6403 6.4473-13.952 7.6003-21.55z"/>
    <path d="m244.96 329.89 0.66008 1.0202-39.119 30.019c-2.0632-6.286-5.1354-12.194-9.0963-17.493z"/>
    <path d="m205.59 309.79-1.0802-0.54008-23.533 19.046c3.4885 2.1901 6.746 4.7279 9.7229 7.5748z"/>
  </g>
  <g>
    <path d="m118.85 190.7h-32.316l16.158-27.987a32.316 32.316 0 0 0-16.158-4.3297 32.316 32.316 0 0 0-32.316 32.316 32.316 32.316 0 0 0 32.316 32.316 32.316 32.316 0 0 0 32.316-32.316z"/>
    <path d="m206.41 162.72 16.158 27.987h-32.316a32.316 32.316 0 0 0 32.316 32.316 32.316 32.316 0 0 0 32.316-32.316 32.316 32.316 0 0 0-32.316-32.316 32.316 32.316 0 0 0-16.158 4.3297z"/>
    <path d="m154.54 40.578a32.316 32.316 0 0 0-32.316 32.316 32.316 32.316 0 0 0 16.158 27.987l16.158-27.987 16.158 27.987a32.316 32.316 0 0 0 16.158-27.987 32.316 32.316 0 0 0-32.316-32.316z"/>
  </g>
  <g>
    <path d="m466.42 125.43-1.6476 0.45621-1.3074 33.276c-0.24118 6.1389-5.2528 10.891-11.237 10.656l-2.6074-0.10258c-2.263 0.31981-4.6279 0.59721-6.9318 1.0131-6.4236 1.1597-12.343 3.4072-16.024 6.5086-3.6805 3.1014-5.1214 7.0561-5.3163 11.179s0.85653 8.4148 4.9667 12.367c4.1104 3.9521 11.28 7.5654 22.195 7.9748 10.916 0.40942 25.575-2.385 36.406-8.9355 10.829-6.5502 17.825-16.856 18.268-27.538 0.44364-10.682-5.6653-21.736-13.141-29.752-7.0424-7.5523-15.298-12.405-23.623-17.103z"/>
    <path d="m446.12 49.485c-10.644-0.0064-24.164 2.8334-34.315 8.9744-10.829 6.5502-17.825 16.856-18.268 27.535-0.44359 10.681 5.6651 21.736 13.141 29.752 7.0426 7.5523 15.298 12.405 23.624 17.104l1.6471-0.4562 1.3069-33.276c0.24118-6.1389 5.2533-10.892 11.238-10.657l2.6069 0.10257c2.2631-0.31984 4.6281-0.59716 6.9323-1.0131 6.4236-1.1597 12.343-3.4068 16.024-6.5082 3.6805-3.1014 5.1214-7.0566 5.3163-11.18 0.19485-4.1232-0.85652-8.4144-4.9667-12.366-4.1102-3.9521-11.28-7.5653-22.195-7.9748-0.68221-0.02559-1.3793-0.03856-2.0889-0.03898z"/>
  </g>
  <g>
    <path d="m555.27 345.7c1.7123-0.55235 1.2646-2.5844 1.3514-3.3837 0.84474-7.7908 2.3588-16.73 3.326-21.366 1.2698-6.0871 2.6846-10.398 3.5496-11.961 0.97995-1.7707 1.8698-3.5515 3.7587-5.8193 2.485-2.9836 1.8843-2.0405 4.2658-4.5801 1.1282-1.2032-0.59096-1.5611-2.303-1.4458-1.7123 0.11534-3.4505 0.3772-5.428 1.2864-2.6815 1.2329-4.3786 2.0087-7.8208 5.2421-3.8894 3.6539-5.6912 7.1702-9.0597 14.59-3.4472 7.5929-5.1556 18.995-6.1278 29.163-0.12284 1.2833 0.0352 2.9363 1.8679 2.345"/>
    <path d="m462.19 322.94c-2.2328-0.0364-4.525 0.11973-6.8651 0.50261-12.481 2.042-24.789 10.107-31.917 23.484-6.6586 12.496-7.5328 30.862-8.5279 41.106-0.0701 0.72192 0.48315 2.7913 3.2535 1.8974 6.2444-2.0147 16.113-5.1986 16.113-5.1986 2.5028-0.80753 2.2951-2.927 2.3707-3.7121 0.94636-9.8294 2.6654-18.408 5.6639-24.035 3.8906-7.3014 10.951-11.528 16.496-12.435 5.5451-0.90728 11.104 1.082 15.649 4.338 4.5447 3.2561 8.0924 8.013 13.284 15.648 0.58098 0.85443 1.0113 2.6212 4.0312 1.6468l15.885-5.125c2.96-0.95502 1.6396-2.8971 1.3107-3.3704-1.5308-2.2024-2.3325-3.4091-3.762-5.5116-5.3617-7.8854-10.342-14.976-18.294-20.673-6.4609-4.6288-15.016-8.4037-24.691-8.5612z"/>
    <path d="m385.82 400.35c1.3457-0.43418 0.50972-1.6942-0.4544-2.8004-4.1037-4.7082-9.1332-10.525-13.795-15.163-10.215-10.162-20.213-21.571-33.642-22.753-13.307-1.1708-21.465 4.6688-27.737 9.9858-3.8521 3.2654-9.4499 7.668-6.3525 12.696 3.0974 5.0283 9.5162 2.3928 14.712 0.6397 7.7913-2.6288 10.55-3.4068 14.588-2.4788 4.0381 0.92788 14.108 7.878 23.349 17.071 2.4902 2.4774 4.3941 4.473 6.832 7.1148 0.52055 0.56411 1.7699 2.3759 3.8152 1.716z"/>
  </g>
  <g font-family="DejaVu Serif" font-size="40">
    <text x="62" y="56">A</text>
    <text x="349" y="56">B</text>
    <text x="25" y="297">C</text>
    <text x="322" y="324">D</text>
  </g>
</svg>
